HIERARCHY
ROOT Hips
{
  OFFSET 0.000000 0.000000 0.000000
  CHANNELS 6 Xposition Yposition Zposition Zrotation Xrotation Yrotation
  JOINT LeftUpLeg
  {
    OFFSET 0.063268 -0.101028 -0.015581
    CHANNELS 3 Zrotation Xrotation Yrotation
    JOINT LeftLeg
    {
      OFFSET 0.052143 -0.354469 0.025141
      CHANNELS 3 Zrotation Xrotation Yrotation
      JOINT LeftFoot
      {
        OFFSET -0.036199 -0.385150 -0.099843
        CHANNELS 3 Zrotation Xrotation Yrotation
        JOINT LeftToeBase
        {
          OFFSET 0.055461 -0.064396 0.123437
          CHANNELS 3 Zrotation Xrotation Yrotation
          End Site
          {
            OFFSET 0 0 0.1
          }
        }
      }
    }
  }
  JOINT RightUpLeg
  {
    OFFSET -0.071119 -0.121848 -0.012937
    CHANNELS 3 Zrotation Xrotation Yrotation
    JOINT RightLeg
    {
      OFFSET -0.032574 -0.330349 0.043307
      CHANNELS 3 Zrotation Xrotation Yrotation
      JOINT RightFoot
      {
        OFFSET 0.010762 -0.396915 -0.118241
        CHANNELS 3 Zrotation Xrotation Yrotation
        JOINT RightToeBase
        {
          OFFSET -0.020113 -0.063041 0.115190
          CHANNELS 3 Zrotation Xrotation Yrotation
          End Site
          {
            OFFSET 0 0 0.1
          }
        }
      }
    }
  }
  JOINT Spine
  {
    OFFSET 0.002679 0.078445 -0.028614
    CHANNELS 3 Zrotation Xrotation Yrotation
    JOINT Spine1
    {
      OFFSET 0.019370 0.137894 0.045821
      CHANNELS 3 Zrotation Xrotation Yrotation
      JOINT Spine2
      {
        OFFSET 0.008958 0.075469 0.018704
        CHANNELS 3 Zrotation Xrotation Yrotation
        JOINT Neck
        {
          OFFSET -0.000514 0.180994 0.020421
          CHANNELS 3 Zrotation Xrotation Yrotation
          JOINT RightArm
          {
            OFFSET 0.015213 0.043688 0.072224
            CHANNELS 3 Zrotation Xrotation Yrotation
            End Site
            {
              OFFSET 0 0 0.1
            }
          }
        }
        JOINT RightShoulder
        {
          OFFSET 0.066868 0.095366 0.003968
          CHANNELS 3 Zrotation Xrotation Yrotation
          JOINT LeftArm
          {
            OFFSET 0.113811 -0.001518 -0.023020
            CHANNELS 3 Zrotation Xrotation Yrotation
            JOINT LeftForeArm
            {
              OFFSET 0.069809 -0.214795 0.004378
              CHANNELS 3 Zrotation Xrotation Yrotation
              JOINT LeftHand
              {
                OFFSET -0.042008 -0.150694 0.119247
                CHANNELS 3 Zrotation Xrotation Yrotation
                End Site
                {
                  OFFSET 0 0 0.1
                }
              }
            }
          }
        }
        JOINT LeftShoulder
        {
          OFFSET -0.076323 0.109487 0.017392
          CHANNELS 3 Zrotation Xrotation Yrotation
          JOINT RightForeArm
          {
            OFFSET -0.108005 0.002177 0.003416
            CHANNELS 3 Zrotation Xrotation Yrotation
            JOINT RightHand
            {
              OFFSET -0.108376 -0.214804 -0.021174
              CHANNELS 3 Zrotation Xrotation Yrotation
              JOINT LeftHandEnd
              {
                OFFSET 0.079434 -0.156967 0.205632
                CHANNELS 3 Zrotation Xrotation Yrotation
                End Site
                {
                  OFFSET 0 0 0.1
                }
              }
            }
          }
        }
      }
    }
  }
}
MOTION
Frames: 7
Frame Time: 0.05000000
0.238543 0.958865 0.800231 -0.000000 0.000000 -46.852315 -39.089830 -53.084395 62.344059 70.724131 -17.588023 -23.534259 -22.398589 5.977929 0.262849 -2.022517 17.289023 61.794986 44.792321 46.499047 45.534180 -61.847278 -1.424379 -13.910895 -10.370088 23.044315 2.756733 1.603164 14.743912 28.194646 19.151213 -3.669704 47.471596 -30.020743 25.456259 8.543389 5.161740 -3.905960 0.059652 8.080919 -1.416744 0.413967 19.589258 -35.860668 51.436763 37.418399 45.851581 55.778095 37.355501 27.074265 -57.589755 -56.381076 -48.891570 -21.704374 3.643473 -56.529120 11.659893 -34.321955 -50.881837 67.168767 -38.806923 -12.539845 -58.787095 52.663251 40.422316 -16.900070 75.832282 -20.022991 -1.799303
0.256417 0.948813 0.804745 -0.000000 0.000000 -47.240717 -37.375900 -53.112438 64.582562 70.000580 -18.647006 -24.304436 -22.918011 6.675210 0.453063 -0.968436 15.932384 61.171559 45.084062 46.970927 45.380543 -63.068912 -1.649445 -13.676987 -10.224929 23.731840 2.956650 2.648842 13.333525 27.208334 21.549890 -3.384709 47.885033 -31.438467 25.063061 9.014282 4.500735 -2.101277 0.111828 9.536808 -2.306207 0.484719 19.100288 -34.995611 53.627858 37.016008 46.254125 56.581588 38.940248 34.572164 -66.215336 -73.272712 -50.440217 -41.369138 -0.253977 -10.903813 0.179720 -35.571243 -51.385470 65.371368 -30.645338 -9.034861 -50.514359 61.720574 46.777500 -17.064544 41.075346 -8.570954 2.351694
0.249470 0.951973 0.805108 -0.000000 0.000000 -47.628923 -37.283431 -53.599312 64.897487 70.246725 -18.445362 -24.304457 -22.761304 6.327959 0.371369 -1.386461 16.566501 61.713638 44.523740 47.341688 46.291013 -62.837521 -1.289993 -14.001580 -10.377100 23.452029 2.930173 2.399723 13.886702 27.829451 21.097513 -3.196651 48.224352 -31.338472 24.954735 8.928161 4.539110 -2.350842 0.094128 9.272731 -2.068478 0.468094 19.505532 -35.155213 53.573658 36.501129 46.579808 57.461857 38.850271 33.315666 -65.353239 -68.778345 -50.610997 -36.931279 -0.391216 -21.709909 0.957670 -34.627031 -51.720863 66.880904 -32.731660 -9.798522 -52.900818 59.486102 45.398756 -17.088676 51.071601 -11.346248 1.867002
0.243999 0.950148 0.802431 -0.000000 0.000000 -48.016916 -36.681455 -53.904959 65.777955 70.410559 -19.037828 -24.407208 -23.451799 6.537314 0.469037 -0.848068 16.177432 61.953500 44.567906 47.728865 46.363697 -62.972147 -1.729079 -13.898053 -10.785133 23.621417 3.054343 2.513210 13.933967 28.170307 21.065726 -2.993716 48.573666 -31.004983 24.405961 8.693729 4.813119 -1.888313 0.152609 9.157750 -2.384944 0.456031 19.678252 -35.246826 54.547321 35.875115 46.848402 58.449230 38.704059 34.604938 -66.826093 -72.419469 -50.105760 -41.220972 -1.338687 -12.039416 -0.072070 -34.386252 -51.956924 67.151069 -31.786724 -9.748296 -52.303774 62.144796 47.191369 -18.343263 43.437830 -8.772498 2.082083
0.246730 0.948319 0.810325 -0.000000 0.000000 -48.404701 -36.011534 -54.332543 66.898339 70.263944 -18.938549 -24.835469 -22.888149 6.395757 0.384214 -1.112000 15.963025 62.150649 44.283503 48.189133 46.998215 -63.250984 -1.436397 -14.101577 -10.667793 23.557909 3.037536 2.552474 13.731224 28.359794 21.980327 -2.669634 48.923241 -32.078917 24.814504 9.130603 5.631456 -2.144142 0.196795 8.486803 -2.333516 0.399458 19.604991 -34.876558 54.574359 35.233466 46.928524 59.221390 39.469661 35.951328 -68.606988 -74.324517 -50.311832 -44.108897 0.288940 -2.101207 0.018791 -34.180210 -52.455379 67.661883 -29.926885 -8.312429 -50.560323 61.831346 49.124711 -16.548177 32.295884 -6.461963 2.060923
0.243843 0.955215 0.804069 -0.000000 0.000000 -48.792251 -36.439848 -54.885862 66.469160 70.733621 -18.002742 -24.525608 -22.155481 5.363950 0.132283 -2.234561 17.255139 63.324999 43.039556 48.450624 48.748838 -62.240747 -0.657399 -14.829359 -10.892186 22.683083 2.877063 1.899457 14.581745 29.625417 20.554516 -2.292178 49.207926 -32.006352 24.824198 8.960602 5.839511 -3.551037 0.116968 7.879632 -1.222917 0.369502 20.165033 -35.195546 53.595433 35.215574 47.397427 59.471690 39.037661 30.268416 -63.169059 -59.322907 -51.559005 -27.124144 5.324043 -45.226803 8.283488 -32.382116 -52.809305 70.569351 -36.235361 -11.350310 -57.966194 53.531528 43.480863 -16.087751 68.051977 -15.716523 -0.554664
0.247666 0.956641 0.797095 -0.000000 0.000000 -49.179584 -35.982863 -55.157402 67.076972 70.845871 -18.946715 -24.467373 -23.215520 5.780223 0.348247 -1.345021 17.168930 63.162427 43.225266 48.769681 48.513800 -62.581043 -1.165445 -14.506855 -11.337231 22.737400 3.039322 1.991352 15.440791 30.180692 19.963479 -2.368955 49.596575 -31.045500 23.601431 8.455213 6.114956 -2.551832 0.198994 7.761763 -1.684579 0.350086 20.735865 -35.551567 54.866584 34.298371 47.628133 60.899477 39.948435 32.370950 -66.398095 -63.488810 -50.597913 -32.892219 -0.054103 -33.490982 2.462856 -31.811500 -52.994102 71.313508 -36.633877 -10.540908 -57.484366 57.958745 44.566982 -18.493449 61.552718 -13.691779 -0.071199
